<?xml version="1.0" encoding="UTF-8"?>
<svg id="Calque_1" data-name="Calque 1" xmlns="http://www.w3.org/2000/svg" viewBox="0 0 1920 1920">
  <defs>
    <style>
      .cls-1 {
        fill: #fff;
      }
    </style>
  </defs>
  <g>
    <path class="cls-1" d="M976.89,969.23h-3.06v1.5h3.06v-1.5Z"/>
    <path d="M1774.08,0h145.92v1.54l-947.7,947.71,24.63-32.96c216.84-271.4,442.59-535.63,671.91-796.5,35.07-39.89,71.52-78.85,105.24-119.79Z"/>
    <path d="M150.53,1920H3.07l947.7-947.71-124.44,157.4c-216.06,268.2-445.9,524.57-672,784.14-1.63,1.87-2.97,3.82-3.8,6.17Z"/>
    <path d="M1920,1918.46v1.54h-145.92c-266.91-301.47-530.82-605.87-781.76-920.9l-18.48-25.28,946.16,944.64Z"/>
    <path d="M148.99,0c267.24,303.62,533.16,608.69,784.83,925.5l12.34,17.6L3.07,0h145.92Z"/>
    <path d="M0,148.99c5.26,2.39,10.98,7.64,15.38,11.5,97.99,85.78,194.85,172.86,293.33,258.09,209.6,181.41,422.07,359.58,639,532.19l-50.56-30.07c-252.21-157.39-495.88-328.05-734.82-504.73-51.16-37.83-103.17-81.11-155.3-116.57-2.29-1.56-3.58-3.62-7.03-2.95v-147.46Z"/>
    <path d="M0,1625.09c2.9-.04,4.65-1.62,6.87-3.11,34.21-22.87,68.93-52.45,102.35-77.37,257.56-192.05,523.34-381.61,797.15-549.93,11.6-7.13,24.42-15.9,36.25-22.12,1.25-.66,4.12-3.13,5.11-1.05-216.66,170.3-427.56,348.05-635.94,528.36-102.61,88.78-203.44,179.6-305.62,268.86-1.87,1.63-3.82,2.96-6.17,3.8v-147.46Z"/>
    <path d="M1920,1623.55v147.46c-307.65-273.33-619.61-542.2-941.57-798.7,11.62,5.49,22.72,12.6,33.66,19.31,314.49,192.97,612.32,411.77,907.9,631.94Z"/>
    <path d="M1920,296.45c-303.82,230.41-614.41,452.75-939.53,652.53l-5.12,1.04c324.35-255.04,635.39-526.54,944.66-799.49v145.92Z"/>
    <path d="M443.9,0c177.34,291.96,347.22,589.87,490.25,900.59,5.59,12.15,12.48,25.76,17.35,37.94.76,1.9,3.11,5.92,1.58,7.66C753.98,617.91,528.04,306.93,297.98,0h145.92Z"/>
    <path d="M1625.09,0l-216.29,292.89c-153.84,213.88-304.14,430.7-440.34,656.37,1.19-6.84,5.25-14.57,8.18-21.02C1122.1,607.53,1297.27,300.94,1479.17,0h145.92Z"/>
    <path d="M1625.09,1920h-147.46l-166.15-281.59c-122.99-216.2-240.11-436.04-342.25-663.05l138.19,217.38c163.67,248.65,338.28,489.86,517.66,727.26Z"/>
    <path d="M445.44,1920h-147.46c231.13-305.61,455.52-617.2,655.1-944.66-.03,4.61-3.21,10.54-5.11,14.88-5.39,12.33-11.25,24.63-16.9,36.86-142.05,307.97-311.01,602.73-485.65,892.91Z"/>
    <path d="M0,1330.18c290.42-128.77,585.44-248.37,888.17-346.01,19.16-6.18,38.44-12.7,58.02-17.26-273.17,124.77-537.87,267.51-796.13,420.4-46.5,27.53-92.15,56.74-138.88,83.84-3.51,2.03-6.92,5.07-11.18,4.95v-145.92Z"/>
    <path d="M0,443.9c306.98,185.87,620.26,362.78,947.73,510.72-16.49-3.41-32.76-9.03-48.81-14.18-303.89-97.47-590.48-216.62-882.52-343.21-5.21-2.26-10.72-5.07-16.4-5.87v-147.46Z"/>
    <path d="M1920,591.36c-305.58,138.58-618.71,261.23-938.81,362.96l-5.85.31c326.34-147.53,639.2-323.02,944.66-509.18v145.92Z"/>
    <path d="M1920,1328.64v147.46c-304.66-186.65-617.53-361.14-943.12-509.18,16.49,3.41,32.76,9.03,48.81,14.18,304.89,97.79,601.92,218.04,894.31,347.54Z"/>
    <path d="M740.35,0c84.03,312.39,161.1,627.29,217.34,946.19C856.32,623.31,731.62,308.26,592.9,0h147.46Z"/>
    <path d="M1330.18,0c-138.18,309.02-263.68,624.23-364.8,947.73,57.39-319.27,132.03-635.46,218.88-947.73h145.92Z"/>
    <path d="M1330.18,1920h-147.46c-84.01-312.42-160.74-627.33-217.34-946.19,101.41,322.84,225.91,638.02,364.8,946.19Z"/>
    <path d="M740.35,1920h-147.46c139.52-307.36,263.06-622.45,364.8-944.66-56.62,318.33-132.7,632.93-217.34,944.66Z"/>
    <path d="M0,1035.26l498.45-42.99,450.82-29.96c-319.66,58.69-635.84,134.16-949.26,218.88v-145.92Z"/>
    <path d="M0,740.35c3.09-.37,5.97.35,8.96,1.01,82.32,18.27,167.44,45.62,249.98,66.45,226.33,57.11,454.62,107.02,684.18,149.88-24.21,1.61-48.77-2.31-72.99-3.82-122.38-7.65-244.8-15.3-367.07-24.61-167.81-12.78-335.46-28.21-503.06-42.99v-145.92Z"/>
    <path d="M1920,740.35v145.92c-173.17,15.84-346.5,31.44-519.95,44.53-123.29,9.3-246.78,16.97-370.14,24.61-3.47.22-49.97,5.1-49.95,2.29,316.5-58.5,629.93-132.32,940.05-217.34Z"/>
    <path d="M1920,1035.26v145.92c-311.4-86.42-626.73-159.44-944.66-218.88,315.27,18.57,630.39,42.7,944.66,72.96Z"/>
    <path d="M1035.26,0c-29.52,313.85-53.64,628.37-72.96,943.12-.76,0-2.16-8.39-2.28-10.02-12.39-165.79-20.83-331.87-33.82-497.63-11.39-145.25-24.51-290.48-38.39-435.47h147.46Z"/>
    <path d="M1035.26,1920h-147.46l35.32-395.53c15.34-178.45,23.97-357.4,36.89-536.03.12-1.64,1.7-11.55,2.29-11.55,19.23,314.76,43.24,629.3,72.96,943.12Z"/>
    <rect x="973.83" y="969.23" width="3.06" height="1.5"/>
  </g>
  <circle cx="960" cy="960" r="34.82"/>
</svg>